#!OML:ASF H:\Not Pregnant\Project 1\Capture day 1\Session 1\non-pregnant.ASF
:FULLY-SPECIFIED
:DEGREES
603
root 5.92056 15.929 24.2829 10.9568 -6.13123 -3.48054
lowerback -5.16572 3.27371 6.11384
upperback -8.10871 4.26303 -0.455816
thorax -5.10327 1.77857 -3.8414
lowerneck 15.5753 -10.5475 -31.1439
upperneck -2.18728 -20.2885 38.0456
head 4.71055 -11.7674 18.366
rclavicle 3.88624e-014 7.95139e-015
rhumerus -42.6664 -24.4903 -69.8349
rradius 19.8577
rwrist 42.353
rhand -6.25669 -1.18698
rfingers 7.12502
rthumb 19.5856 -30.2204
lclavicle 3.88624e-014 7.95139e-015
lhumerus -52.693 12.0766 75.6228
lradius 28.0746
lwrist 35.0244
lhand -14.0603 -6.20665
lfingers 7.12502
lthumb 12.0709 23.4252
rfemur -30.9785 2.51191 27.9432
rtibia 29.481
rfoot -7.01542 18.774
rtoes -1.94021
lfemur -12.5375 3.65125 -21.1009
ltibia 63.3814
lfoot -9.50524 -32.4305
ltoes 29.8422
604
root 5.90926 15.9092 24.385 10.8688 -6.1276 -3.59622
lowerback -5.10552 3.20491 6.15166
upperback -8.05574 4.17519 -0.396148
thorax -5.0921 1.73572 -3.80391
lowerneck 15.5526 -10.5355 -31.1165
upperneck -2.31517 -20.236 38.1209
head 4.66835 -11.7448 18.4071
rclavicle 9.86469e-015 -1.5207e-014
rhumerus -42.6001 -24.2946 -70.12
rradius 20.0172
rwrist 41.9752
rhand -6.35364 -1.24925
rfingers 7.12502
rthumb 19.4924 -30.2922
lclavicle 9.86469e-015 -1.5207e-014
lhumerus -52.8133 11.9974 75.6646
lradius 27.8353
lwrist 34.4062
lhand -13.9032 -5.88254
lfingers 7.12502
lthumb 12.2225 23.7403
rfemur -30.7765 2.78794 28.0257
rtibia 30.1182
rfoot -7.81593 18.4212
rtoes -1.9872
lfemur -13.03 4.23997 -20.5073
ltibia 64.725
lfoot -5.5363 -32.8359
ltoes 30.6607
605
root 5.89823 15.8893 24.4835 10.7617 -6.06903 -3.75813
lowerback -5.00384 3.12874 6.23945
upperback -7.98811 4.07997 -0.327243
thorax -5.08744 1.68686 -3.78652
lowerneck 15.525 -10.5403 -31.0788
upperneck -2.45286 -20.2029 38.2016
head 4.63188 -11.7318 18.443
rclavicle -2.9122e-014 -1.2921e-015
rhumerus -42.4916 -23.9897 -70.5106
rradius 20.2201
rwrist 41.3794
rhand -6.52788 -1.31072
rfingers 7.12502
rthumb 19.3248 -30.3705
lclavicle -2.9122e-014 -1.2921e-015
lhumerus -52.8433 11.8062 75.8204
lradius 27.5858
lwrist 33.647
lhand -13.7655 -5.73894
lfingers 7.12502
lthumb 12.3552 23.876
rfemur -30.5364 3.04753 28.1567
rtibia 30.7139
rfoot -8.57938 18.0557
rtoes -2.11968
lfemur -13.6201 4.75192 -19.8222
ltibia 66.1381
lfoot -1.32812 -33.0081
ltoes 31.3521
606
root 5.88813 15.8689 24.5772 10.6369 -5.963 -3.96682
lowerback -4.84335 3.03817 6.37612
upperback -7.91848 3.97033 -0.2417
thorax -5.1143 1.62759 -3.78235
lowerneck 15.476 -10.548 -31.0526
upperneck -2.55812 -20.1791 38.2841
head 4.61387 -11.7216 18.4788
rclavicle -5.31004e-014 -2.24627e-014
rhumerus -42.3585 -23.5698 -70.9829
rradius 20.4668
rwrist 40.6129
rhand -6.73507 -1.37375
rfingers 7.12502
rthumb 19.1256 -30.4534
lclavicle -5.31004e-014 -2.24627e-014
lhumerus -52.8214 11.5216 76.0828
lradius 27.3539
lwrist 32.7861
lhand -13.6458 -5.74508
lfingers 7.12502
lthumb 12.4706 23.8628
rfemur -30.252 3.24077 28.3522
rtibia 31.2374
rfoot -9.2941 17.7243
rtoes -2.26918
lfemur -14.296 5.1773 -19.0566
ltibia 67.5881
lfoot 3.04341 -32.9651
ltoes 31.9178
607
root 5.8782 15.8488 24.6677 10.4948 -5.82454 -4.21809
lowerback -4.63382 2.94206 6.54725
upperback -7.84327 3.85772 -0.142691
thorax -5.1628 1.56474 -3.78547
lowerneck 15.4273 -10.5649 -31.0243
upperneck -2.67189 -20.1675 38.374
head 4.59951 -11.718 18.5147
rclavicle 7.97623e-015 -7.85199e-015
rhumerus -42.2031 -23.0512 -71.5231
rradius 20.749
rwrist 39.7119
rhand -6.97147 -1.41675
rfingers 7.12502
rthumb 18.8983 -30.5187
lclavicle 7.97623e-015 -7.85199e-015
lhumerus -52.7446 11.1486 76.437
lradius 27.1463
lwrist 31.8343
lhand -13.5304 -5.85082
lfingers 7.12502
lthumb 12.5819 23.7503
rfemur -29.9067 3.35233 28.6152
rtibia 31.6695
rfoot -9.96088 17.4438
rtoes -2.36949
lfemur -15.0322 5.52697 -18.2239
ltibia 69.0363
lfoot 7.46823 -32.7568
ltoes 32.3051
608
root 5.86845 15.8296 24.7553 10.3432 -5.65983 -4.49584
lowerback -4.39554 2.84043 6.73812
upperback -7.76064 3.74082 -0.0353427
thorax -5.22024 1.49881 -3.79164
lowerneck 15.3777 -10.5886 -30.9974
upperneck -2.79247 -20.1651 38.4736
head 4.58925 -11.7198 18.5534
rclavicle -8.97016e-015 1.98785e-015
rhumerus -42.0317 -22.4751 -72.0999
rradius 21.0561
rwrist 38.746
rhand -7.20793 -1.43618
rfingers 7.12502
rthumb 18.6708 -30.5601
lclavicle -8.97016e-015 1.98785e-015
lhumerus -52.6167 10.7081 76.8661
lradius 26.9801
lwrist 30.8099
lhand -13.4281 -5.99883
lfingers 7.12502
lthumb 12.6805 23.5962
rfemur -29.5118 3.38745 28.9271
rtibia 32.0087
rfoot -10.5854 17.2022
rtoes -2.42093
lfemur -15.8189 5.7954 -17.3519
ltibia 70.4519
lfoot 11.8428 -32.4044
ltoes 32.6349
609
root 5.85876 15.8118 24.8411 10.1876 -5.47699 -4.7788
lowerback -4.13816 2.7366 6.92658
upperback -7.67542 3.62361 0.0734851
thorax -5.28656 1.43269 -3.79516
lowerneck 15.3417 -10.6167 -30.9728
upperneck -2.93335 -20.1702 38.5882
head 4.57708 -11.7278 18.5997
rclavicle -4.96962e-016 -1.55052e-014
rhumerus -41.8594 -21.8577 -72.6959
rradius 21.3862
rwrist 37.7383
rhand -7.42944 -1.44119
rfingers 7.12502
rthumb 18.4578 -30.5855
lclavicle -4.96962e-016 -1.55052e-014
lhumerus -52.4449 10.2081 77.3537
lradius 26.8483
lwrist 29.7432
lhand -13.3272 -6.19564
lfingers 7.12502
lthumb 12.7777 23.3933
rfemur -29.0768 3.36738 29.2599
rtibia 32.267
rfoot -11.1775 16.9756
rtoes -2.43439
lfemur -16.6416 5.98382 -16.4767
ltibia 71.8096
lfoot 15.4675 -32.1528
ltoes 31.8185
610
root 5.84868 15.7952 24.9253 10.0331 -5.28566 -5.05326
lowerback -3.8809 2.63644 7.09675
upperback -7.5816 3.51179 0.176026
thorax -5.34385 1.37067 -3.79401
lowerneck 15.3271 -10.6496 -30.9432
upperneck -3.11183 -20.1799 38.7266
head 4.55635 -11.742 18.6578
rclavicle -1.36664e-014 1.07344e-014
rhumerus -41.6752 -21.2457 -73.2949
rradius 21.72
rwrist 36.7299
rhand -7.64446 -1.42901
rfingers 7.12502
rthumb 18.2509 -30.5928
lclavicle -1.36664e-014 1.07344e-014
lhumerus -52.2182 9.66564 77.8773
lradius 26.7543
lwrist 28.6586
lhand -13.219 -6.43049
lfingers 7.12502
lthumb 12.8821 23.1519
rfemur -28.6223 3.33982 29.5914
rtibia 32.4697
rfoot -11.7446 16.7173
rtoes -2.4257
lfemur -17.4981 6.10898 -15.6216
ltibia 73.101
lfoot 18.334 -32.1112
ltoes 30.0453
611
root 5.83825 15.7795 25.0075 9.8794 -5.09129 -5.29617
lowerback -3.62007 2.54042 7.22516
upperback -7.48217 3.40605 0.266579
thorax -5.3978 1.31393 -3.78147
lowerneck 15.3361 -10.6866 -30.9099
upperneck -3.32876 -20.1936 38.8874
head 4.52631 -11.7625 18.728
rclavicle -8.69683e-016 -2.46493e-014
rhumerus -41.4874 -20.644 -73.8906
rradius 22.0633
rwrist 35.7198
rhand -7.86475 -1.40531
rfingers 7.12502
rthumb 18.039 -30.5888
lclavicle -8.69683e-016 -2.46493e-014
lhumerus -51.9455 9.08988 78.4253
lradius 26.7042
lwrist 27.5997
lhand -13.1105 -6.69697
lfingers 7.12502
lthumb 12.9867 22.8788
rfemur -28.168 3.33451 29.8924
rtibia 32.6464
rfoot -12.2387 16.3954
rtoes -2.78177
lfemur -18.3888 6.18111 -14.8213
ltibia 74.3245
lfoot 20.5611 -32.2222
ltoes 27.8351
612
root 5.82786 15.764 25.0879 9.7222 -4.89759 -5.50713
lowerback -3.36213 2.45012 7.32008
upperback -7.37543 3.3074 0.343229
thorax -5.44216 1.26275 -3.76387
lowerneck 15.3754 -10.7235 -30.8734
upperneck -3.57886 -20.2079 39.0695
head 4.48566 -11.7881 18.8118
rclavicle -1.19271e-014 -3.02153e-014
rhumerus -41.3017 -20.0422 -74.4898
rradius 22.4248
rwrist 34.698
rhand -8.09683 -1.36325
rfingers 7.12502
rthumb 17.8157 -30.5672
lclavicle -1.19271e-014 -3.02153e-014
lhumerus -51.6375 8.49428 78.9787
lradius 26.7062
lwrist 26.6125
lhand -12.9869 -6.99542
lfingers 7.12502
lthumb 13.1058 22.5728
rfemur -27.7212 3.36404 30.1605
rtibia 32.8243
rfoot -12.6852 15.9934
rtoes -3.452
lfemur -19.3081 6.22071 -14.084
ltibia 75.4855
lfoot 22.2871 -32.3532
ltoes 25.8528
